PathFileType	4	(x/y/z)	S01_M20_T10.trc
DataRate	CameraRate	NumFrames	NumMarkers	Units	OrigDataRate	OrigDataStartFrame	OrigNumFrames
240	240	7	51	mm	240	367	419
Frame#	Time	Sternum			R.Acromium			L.Acromium			Top.Head			R.ASIS			L.ASIS			R.PSIS			L.PSIS			R.Great.Tro			L.Great.Tro			R.Iliac.Crest			L.Iliac.Crest			V.Sacral			R.Thigh.Upper.Post			R.Thigh.Lower.Ant			R.Thigh.Lower.Post			R.Thigh.Upper.Ant			R.Knee.Lat			R.Knee.Med			R.Shank.Upper.Post			R.Shank.Lower.Ant			R.Shank.Lower.Post			R.Shank.Upper.Ant			R.Ankle.Lat			R.Ankle.Med			R.Heel.Upper			R.Heel.Med			R.Heel.Lat			R.Toe.Lat			R.Toe.Med			R.Toe.Tip			L.Thigh.Upper.Post			L.Thigh.Lower.Ant			L.Thigh.Lower.Post			L.Thigh.Upper.Ant			L.Knee.Lat			L.Knee.Med			L.Shank.Upper.Post			L.Shank.Lower.Ant			L.Shank.Lower.Post			L.Shank.Upper.Ant			L.Ankle.Lat			L.Ankle.Med			L.Heel.Upper			L.Heel.Med			L.Heel.Lat			L.Toe.Lat			L.Toe.Med			L.Toe.Tip			Cervical.Spine			Back			
		X1	Y1	Z1	X2	Y2	Z2	X3	Y3	Z3	X4	Y4	Z4	X5	Y5	Z5	X6	Y6	Z6	X7	Y7	Z7	X8	Y8	Z8	X9	Y9	Z9	X10	Y10	Z10	X11	Y11	Z11	X12	Y12	Z12	X13	Y13	Z13	X14	Y14	Z14	X15	Y15	Z15	X16	Y16	Z16	X17	Y17	Z17	X18	Y18	Z18	X19	Y19	Z19	X20	Y20	Z20	X21	Y21	Z21	X22	Y22	Z22	X23	Y23	Z23	X24	Y24	Z24	X25	Y25	Z25	X26	Y26	Z26	X27	Y27	Z27	X28	Y28	Z28	X29	Y29	Z29	X30	Y30	Z30	X31	Y31	Z31	X32	Y32	Z32	X33	Y33	Z33	X34	Y34	Z34	X35	Y35	Z35	X36	Y36	Z36	X37	Y37	Z37	X38	Y38	Z38	X39	Y39	Z39	X40	Y40	Z40	X41	Y41	Z41	X42	Y42	Z42	X43	Y43	Z43	X44	Y44	Z44	X45	Y45	Z45	X46	Y46	Z46	X47	Y47	Z47	X48	Y48	Z48	X49	Y49	Z49	X50	Y50	Z50	X51	Y51	Z51	

367	1.525	790.41	1273.9	252.49	665.18	1524.5	417.34	667.33	1537.6	89.036	682.84	1847.5	246.04	731.51	1019.2	404.25	743.49	1014.6	136.7	500.64	1061	308.01	498.56	1065.7	203.96	656.91	970.18	488.62	630.52	973.26	56.779	643.76	1121	464.09	637.17	1097.2	59.598	484.11	1028.1	251.76	774.05	679.65	471.89	869.92	649.85	450.71	817.68	604.31	449.86	828.44	728.15	470.81	866.62	564.58	448.32	881.05	566.81	300.54	857.57	399.16	466.88	944.63	338.95	434.82	875.79	331.2	456.73	921.83	407.61	450.17	947.56	134.38	429.01	982.82	155.37	340.64	901.27	79.464	364.43	929.45	60.148	336.99	919.83	54.7	400.18	1092.2	113.47	474.7	1128.3	137.91	358.17	1172.2	180.6	417.95	525.48	713.63	80.567	588.28	623.19	86.405	510.77	625.41	96.79	595.05	716.32	64.205	531.13	528.11	91.214	548.14	527.89	234.34	448.15	397.06	78.205	493.01	299.39	106.84	435.72	320.57	84.896	506.26	374.72	95.98	387.47	110.77	131.63	412.95	120.12	227.99	314.25	80.894	177.11	323.44	55.263	210.91	322.59	54.682	148.18	531.99	39.645	114.13	556.44	45.35	235.76	620.5	53.266	185.95	578.8	1584.9	252.86	492.38	1276.3	263.93
368	1.5292	795.79	1272.5	252.83	670.64	1523.1	418.05	672.63	1536.3	89.716	687.85	1846.2	247.06	737.13	1017.8	404.29	748.62	1013.4	136.71	506.06	1059.7	308.57	503.8	1064.6	204.55	662.64	968.65	488.77	635.22	972.35	56.964	649.52	1119.6	464.37	642.04	1096	59.871	489.37	1026.9	252.29	779.6	678.23	471.97	875.46	648.5	450.53	823.25	602.92	449.87	833.96	726.77	470.72	872.5	563.54	448.23	886.44	565.46	300.38	865.95	397.97	467	953.91	339.12	434.95	885.24	330.3	456.92	930.05	407.43	450.25	960.28	134.53	429.32	995.01	156.1	340.9	914.79	78.78	364.89	943.26	59.934	337.41	933.83	54.343	400.62	1105.3	116.09	474.78	1140.8	141.16	358.16	1184.1	184.59	417.87	529.05	713.33	80.946	591.38	622.57	86.538	513.97	625.17	97.109	598.55	715.69	64.353	533.73	527.78	91.313	551.15	527.31	234.44	449.94	397.14	78.421	494.27	299.19	106.89	437.06	320.73	85.061	507.95	374.44	96.066	387.67	111.05	131.81	413.27	120.32	228.12	314.41	81.28	177.31	323.59	55.601	211.08	322.69	55.09	148.34	532.02	39.608	114.12	556.51	45.296	235.71	620.57	53.116	185.91	584.14	1583.6	253.64	497.72	1275	264.54
369	1.5333	801.19	1271.2	253.16	676.12	1521.6	418.78	677.94	1535.1	90.417	692.88	1845	248.1	742.78	1016.3	404.35	753.77	1012.2	136.71	511.5	1058.4	309.14	509.05	1063.5	205.17	668.41	967.12	488.94	639.94	971.43	57.164	655.3	1118.1	464.66	646.93	1094.8	60.16	494.65	1025.8	252.84	785.2	676.82	472.07	881.02	647.16	450.34	828.84	601.54	449.91	839.52	725.4	470.62	878.37	562.48	448.16	891.82	564.08	300.22	874.24	396.79	467.12	963.05	339.27	435.07	894.55	329.43	457.09	938.17	407.22	450.33	972.75	134.71	429.59	1007	156.84	341.12	928.06	78.167	365.28	956.8	59.785	337.77	947.56	54.051	401	1118.1	118.67	474.85	1153	144.35	358.16	1195.7	188.48	417.81	532.67	713.01	81.352	594.54	621.94	86.685	517.24	624.92	97.461	602.12	715.05	64.521	536.41	527.45	91.434	554.25	526.7	234.54	451.8	397.24	78.654	495.59	299	106.95	438.47	320.9	85.238	509.71	374.16	96.17	387.9	111.35	131.98	413.62	120.54	228.25	314.59	81.707	177.51	323.75	55.981	211.24	322.79	55.538	148.5	532.06	39.576	114.1	556.58	45.236	235.65	620.64	52.957	185.88	589.5	1582.3	254.45	503.08	1273.7	265.18
370	1.5375	806.61	1269.9	253.5	681.63	1520.1	419.52	683.26	1533.9	91.136	697.92	1843.7	249.17	748.46	1014.9	404.41	758.95	1010.9	136.72	516.97	1057.1	309.73	514.33	1062.3	205.8	674.22	965.59	489.12	644.69	970.5	57.38	661.09	1116.7	464.96	651.83	1093.6	60.466	499.96	1024.6	253.42	790.83	675.43	472.18	886.61	645.82	450.14	834.47	600.17	449.96	845.12	724.04	470.51	884.24	561.4	448.11	897.17	562.67	300.08	882.42	395.62	467.24	972.05	339.39	435.18	903.73	328.57	457.26	946.18	406.99	450.4	984.96	134.91	429.81	1018.7	157.58	341.31	941.05	77.614	365.62	970.07	59.686	338.08	960.99	53.811	401.31	1130.6	121.18	474.92	1164.9	147.45	358.15	1207	192.24	417.78	536.36	712.68	81.782	597.76	621.31	86.844	520.58	624.65	97.844	605.75	714.41	64.71	539.18	527.1	91.574	557.45	526.08	234.66	453.74	397.34	78.901	496.96	298.81	107.02	439.93	321.08	85.426	511.53	373.88	96.289	388.14	111.68	132.16	413.99	120.79	228.38	314.78	82.179	177.72	323.92	56.405	211.41	322.91	56.028	148.67	532.09	39.549	114.1	556.66	45.173	235.6	620.71	52.789	185.84	594.88	1581	255.29	508.46	1272.3	265.84
371	1.5417	812.05	1268.5	253.83	687.18	1518.6	420.28	688.58	1532.6	91.875	702.98	1842.4	250.26	754.17	1013.5	404.47	764.15	1009.7	136.74	522.46	1055.7	310.35	519.63	1061.2	206.45	680.06	964.06	489.31	649.45	969.56	57.612	666.9	1115.2	465.28	656.75	1092.4	60.789	505.29	1023.4	254.01	796.51	674.05	472.31	892.25	644.49	449.93	840.13	598.81	450.03	850.78	722.69	470.39	890.12	560.31	448.07	902.51	561.24	299.95	890.51	394.46	467.36	980.9	339.48	435.29	912.76	327.72	457.42	954.08	406.73	450.48	996.88	135.11	430.01	1030.2	158.31	341.48	953.76	77.106	365.9	983.03	59.623	338.34	974.11	53.608	401.57	1142.8	123.62	474.98	1176.6	150.45	358.15	1218	195.86	417.77	540.1	712.34	82.235	601.04	620.67	87.016	523.99	624.37	98.256	609.44	713.76	64.918	542.03	526.75	91.731	560.72	525.45	234.8	455.76	397.46	79.162	498.38	298.62	107.11	441.46	321.29	85.624	513.42	373.6	96.423	388.41	112.03	132.35	414.38	121.06	228.52	314.98	82.698	177.93	324.1	56.879	211.59	323.03	56.562	148.84	532.13	39.526	114.09	556.75	45.106	235.55	620.79	52.613	185.81	600.29	1579.6	256.15	513.85	1271	266.52
372	1.5458	817.51	1267.1	254.17	692.76	1517.1	421.05	693.92	1531.4	92.634	708.06	1841.2	251.38	759.92	1012	404.55	769.38	1008.4	136.76	527.98	1054.3	310.98	524.95	1060.1	207.12	685.94	962.54	489.52	654.25	968.62	57.86	672.73	1113.7	465.61	661.68	1091.2	61.132	510.66	1022.2	254.62	802.23	672.68	472.44	897.92	643.17	449.71	845.83	597.46	450.12	856.48	721.36	470.25	896.01	559.2	448.05	907.85	559.8	299.83	898.5	393.32	467.48	989.6	339.54	435.39	921.64	326.87	457.57	961.89	406.44	450.56	1008.5	135.3	430.16	1041.4	159.01	341.62	966.16	76.632	366.12	995.68	59.582	338.55	986.9	53.427	401.78	1154.6	125.95	475.03	1187.9	153.33	358.13	1228.7	199.33	417.77	543.91	711.99	82.708	604.39	620.03	87.199	527.48	624.08	98.696	613.21	713.11	65.145	544.96	526.4	91.906	564.09	524.79	234.95	457.84	397.59	79.434	499.86	298.45	107.21	443.05	321.51	85.83	515.38	373.33	96.571	388.7	112.41	132.54	414.8	121.35	228.65	315.2	83.269	178.14	324.29	57.405	211.76	323.16	57.144	149.02	532.17	39.507	114.09	556.84	45.037	235.5	620.88	52.429	185.78	605.71	1578.3	257.03	519.27	1269.6	267.21
373	1.55	822.99	1265.8	254.51	698.37	1515.5	421.84	699.27	1530.2	93.411	713.16	1839.9	252.53	765.71	1010.6	404.63	774.63	1007.1	136.79	533.54	1053	311.62	530.3	1058.9	207.81	691.86	961.03	489.74	659.08	967.67	58.126	678.58	1112.2	465.97	666.64	1090	61.495	516.05	1021	255.26	808.01	671.35	472.59	903.64	641.86	449.49	851.58	596.12	450.24	862.23	720.05	470.11	901.91	558.08	448.04	913.18	558.34	299.72	906.38	392.18	467.61	998.14	339.54	435.49	930.37	326.03	457.71	969.59	406.1	450.65	1019.9	135.48	430.28	1052.3	159.66	341.73	978.24	76.176	366.3	1008	59.547	338.71	999.34	53.254	401.93	1166	128.16	475.07	1198.8	156.06	358.11	1239.1	202.6	417.78	547.78	711.63	83.2	607.8	619.38	87.394	531.03	623.77	99.163	617.03	712.46	65.39	547.97	526.04	92.097	567.53	524.13	235.12	460	397.74	79.717	501.39	298.29	107.33	444.7	321.75	86.043	517.4	373.06	96.731	389.02	112.83	132.72	415.24	121.68	228.79	315.44	83.893	178.35	324.49	57.987	211.93	323.31	57.776	149.19	532.21	39.494	114.1	556.93	44.966	235.45	620.97	52.237	185.75	611.15	1576.9	257.94	524.7	1268.2	267.93
